<?xml version="1.0" encoding="utf-8"?>
<!-- Generator: Adobe Illustrator 21.1.0, SVG Export Plug-In . SVG Version: 6.00 Build 0)  -->
<svg version="1.1" id="Layer_1" xmlns="http://www.w3.org/2000/svg" xmlns:xlink="http://www.w3.org/1999/xlink" x="0px" y="0px"
	 viewBox="0 0 3303.8 885.6" style="enable-background:new 0 0 3303.8 885.6;" xml:space="preserve">
<style type="text/css">
	.st0{fill:none;stroke:#000000;stroke-width:10;}
	.st1{font-family:'Courier';}
	.st2{font-size:32.2449px;}
	.st3{fill:none;stroke:#000000;stroke-width:5;}
	.st4{fill:none;stroke:#000000;stroke-width:3;}
	.st5{font-size:30.0952px;}
	.st6{font-size:20.4218px;}
	.st7{font-size:27.9561px;}
	.st8{font-size:26.0924px;}
	.st9{font-size:17.7055px;}
	.st10{font-size:29.0686px;}
	.st11{font-size:27.1307px;}
	.st12{font-size:18.4101px;}
	.st13{font-size:25.4619px;}
	.st14{font-size:23.7645px;}
	.st15{font-size:16.1259px;}
	.st16{font-size:32.0707px;}
	.st17{font-size:29.9327px;}
	.st18{font-size:20.3115px;}
</style>
<rect x="1421" y="22.6" class="st0" width="161.2" height="335.7"/>
<text transform="matrix(1 0 0 1 1469.915 347.1524)" class="st1 st2">ALU</text>
<line class="st3" x1="1276.7" y1="48.9" x2="1400.1" y2="48.9"/>
<path d="M1398.1,48.9l-6.4-8.1l24.2,8.1l-24.2,8.1L1398.1,48.9z"/>
<line class="st4" x1="1337.1" y1="54.3" x2="1347.9" y2="43.5"/>
<text transform="matrix(1 0 0 1 1223.9893 56.4444)" class="st1 st5">OP</text>
<text transform="matrix(1 0 0 1 1336.3672 40.8594)" class="st1 st6">2</text>
<line class="st3" x1="713" y1="101.5" x2="1398.1" y2="101.5"/>
<path d="M1398.1,101.5l-6.4-8.1l24.2,8.1l-24.2,8.1L1398.1,101.5z"/>
<line class="st4" x1="1170.1" y1="107" x2="1180.9" y2="96.2"/>
<text transform="matrix(1 0 0 1 1433.7188 109.1114)" class="st1 st5">A</text>
<text transform="matrix(1 0 0 1 1163.2402 93.5264)" class="st1 st6">32</text>
<line class="st3" x1="1272" y1="257.3" x2="1398.1" y2="257.3"/>
<path d="M1398.1,257.3l-6.4-8.1l24.2,8.1l-24.2,8.1L1398.1,257.3z"/>
<line class="st4" x1="1330.1" y1="262.6" x2="1340.9" y2="251.9"/>
<text transform="matrix(1 0 0 1 1433.7188 264.7784)" class="st1 st5">B</text>
<text transform="matrix(1 0 0 1 1323.2402 249.1929)" class="st1 st6">32</text>
<line class="st3" x1="1579.6" y1="62.1" x2="2915.2" y2="62.1"/>
<line class="st4" x1="1750" y1="67.5" x2="1760.8" y2="56.7"/>
<text transform="matrix(1 0 0 1 1547.7725 69.6114)" class="st1 st5">O</text>
<text transform="matrix(1 0 0 1 1743.1309 54.0264)" class="st1 st6">32</text>
<line class="st3" x1="1579.6" y1="141.1" x2="1695.1" y2="141.1"/>
<path d="M1683.5,141.1l-6.4-8.1l24.2,8.1l-24.2,8.1L1683.5,141.1z"/>
<line class="st4" x1="1630" y1="146.5" x2="1640.8" y2="135.7"/>
<text transform="matrix(1 0 0 1 1717.7725 148.6114)" class="st1 st5">N</text>
<text transform="matrix(1 0 0 1 1629.2588 133.0259)" class="st1 st6">1</text>
<rect x="273" y="21.6" class="st0" width="437" height="319.6"/>
<text transform="matrix(1 0 0 1 388.5273 329.5708)" class="st1 st7">RegisterBank</text>
<path class="st4" d="M273,316.1l22.8,11.4L273,338.9V316.1z"/>
<line class="st3" x1="156.5" y1="44.4" x2="256.7" y2="44.4"/>
<path d="M255.3,44.4l-5.6-7l21,7l-21,7L255.3,44.4z"/>
<line class="st4" x1="208.9" y1="49.1" x2="218.2" y2="39.8"/>
<text transform="matrix(1 0 0 1 95.1836 50.9414)" class="st1 st8">RST</text>
<text transform="matrix(1 0 0 1 208.2734 37.4292)" class="st1 st9">1</text>
<line class="st3" x1="32" y1="90.1" x2="256.7" y2="90.1"/>
<path d="M255.3,90.1l-5.6-7l21,7l-21,7L255.3,90.1z"/>
<line class="st4" x1="208.9" y1="94.7" x2="218.2" y2="85.4"/>
<text transform="matrix(1 0 0 1 286.5 96.6031)" class="st1 st8">W</text>
<text transform="matrix(1 0 0 1 202.9609 83.0909)" class="st1 st9">32</text>
<line class="st3" x1="156.5" y1="135.7" x2="256.7" y2="135.7"/>
<path d="M255.3,135.7l-5.6-7l21,7l-21,7L255.3,135.7z"/>
<line class="st4" x1="208.9" y1="140.4" x2="218.2" y2="131.1"/>
<text transform="matrix(1 0 0 1 110.8418 142.2647)" class="st1 st8">RA</text>
<text transform="matrix(1 0 0 1 208.2734 128.753)" class="st1 st9">4</text>
<line class="st3" x1="156.5" y1="181.4" x2="256.7" y2="181.4"/>
<path d="M255.3,181.4l-5.6-7l21,7l-21,7L255.3,181.4z"/>
<line class="st4" x1="208.9" y1="186.1" x2="218.2" y2="176.7"/>
<text transform="matrix(1 0 0 1 110.8418 187.9263)" class="st1 st8">RB</text>
<text transform="matrix(1 0 0 1 208.2734 174.4146)" class="st1 st9">4</text>
<line class="st3" x1="156.5" y1="227.1" x2="256.7" y2="227.1"/>
<path d="M255.3,227.1l-5.6-7l21,7l-21,7L255.3,227.1z"/>
<line class="st4" x1="208.9" y1="231.7" x2="218.2" y2="222.4"/>
<text transform="matrix(1 0 0 1 110.8418 233.5879)" class="st1 st8">RW</text>
<text transform="matrix(1 0 0 1 208.2734 220.0757)" class="st1 st9">4</text>
<line class="st3" x1="156.5" y1="272.7" x2="256.7" y2="272.7"/>
<path d="M255.3,272.7l-5.6-7l21,7l-21,7L255.3,272.7z"/>
<line class="st4" x1="208.9" y1="277.4" x2="218.2" y2="268.1"/>
<text transform="matrix(1 0 0 1 110.8418 279.2495)" class="st1 st8">WE</text>
<text transform="matrix(1 0 0 1 208.2734 265.7378)" class="st1 st9">1</text>
<text transform="matrix(1 0 0 1 676.2148 108.0186)" class="st1 st8">A</text>
<text transform="matrix(1 0 0 1 676.2148 220.8345)" class="st1 st8">B</text>
<line class="st3" x1="34.5" y1="88.1" x2="34.5" y2="853.8"/>
<rect x="1068.6" y="188.4" class="st0" width="207.3" height="169.9"/>
<text transform="matrix(1 0 0 1 1141.7275 346.1988)" class="st1 st10">MUX</text>
<line class="st3" x1="713" y1="214.4" x2="1051.6" y2="214.4"/>
<path d="M1050.2,214.4l-5.8-7.3l21.8,7.3l-21.8,7.3L1050.2,214.4z"/>
<line class="st4" x1="884.7" y1="219.2" x2="894.4" y2="209.6"/>
<text transform="matrix(1 0 0 1 1081.7729 221.1807)" class="st1 st11">A</text>
<text transform="matrix(1 0 0 1 881.1841 207.1309)" class="st1 st12">32</text>
<line class="st3" x1="778.4" y1="270" x2="1051.6" y2="270"/>
<path d="M1050.2,270l-5.8-7.3l21.8,7.3l-21.8,7.3L1050.2,270z"/>
<line class="st4" x1="884.7" y1="274.8" x2="894.4" y2="265.1"/>
<text transform="matrix(1 0 0 1 1081.7729 276.7447)" class="st1 st11">B</text>
<text transform="matrix(1 0 0 1 881.1841 262.6949)" class="st1 st12">32</text>
<line class="st3" x1="965.6" y1="325.5" x2="1051.6" y2="325.5"/>
<path d="M1050.2,325.5l-5.8-7.3l21.8,7.3l-21.8,7.3L1050.2,325.5z"/>
<line class="st4" x1="1004.7" y1="330.4" x2="1014.4" y2="320.7"/>
<text transform="matrix(1 0 0 1 909.2104 332.3101)" class="st1 st11">COM</text>
<text transform="matrix(1 0 0 1 1004.0435 318.2593)" class="st1 st12">1</text>
<text transform="matrix(1 0 0 1 1247.7344 258.7447)" class="st1 st11">Y</text>
<rect x="399.6" y="589.6" class="st0" width="247.4" height="89.1"/>
<text transform="matrix(1 0 0 1 425.9492 668.0953)" class="st1 st13">SignExtension</text>
<line class="st3" x1="278.4" y1="634.1" x2="384.7" y2="634.1"/>
<path d="M383.5,634.1l-5.1-6.4l19.1,6.4l-19.1,6.4L383.5,634.1z"/>
<line class="st4" x1="328.5" y1="638.4" x2="337" y2="629.9"/>
<text transform="matrix(1 0 0 1 228.7637 640.0875)" class="st1 st14">Imm</text>
<text transform="matrix(1 0 0 1 329.3584 626.7798)" class="st1 st15">8</text>
<line class="st3" x1="648.1" y1="634.1" x2="783.3" y2="634.1"/>
<line class="st4" x1="695.8" y1="638.4" x2="704.3" y2="629.9"/>
<text transform="matrix(1 0 0 1 625.1162 640.0875)" class="st1 st14">Y</text>
<text transform="matrix(1 0 0 1 690.3828 627.7798)" class="st1 st15">32</text>
<line class="st3" x1="780.9" y1="270" x2="780.9" y2="635.7"/>
<circle cx="838.3" cy="214.1" r="13.3"/>
<line class="st3" x1="838.3" y1="214.1" x2="838.3" y2="526.6"/>
<rect x="2098.6" y="445.6" class="st0" width="437.2" height="261.9"/>
<text transform="matrix(1 0 0 1 2218.3486 694.1353)" class="st1 st16">DataMemory</text>
<path class="st4" d="M2098.6,678.6l26.2,13.1l-26.2,13.1V678.6z"/>
<line class="st3" x1="1963" y1="471.8" x2="2077.9" y2="471.8"/>
<path d="M2076.3,471.8l-6.4-8l24.1,8l-24.1,8L2076.3,471.8z"/>
<line class="st4" x1="2023.1" y1="477.1" x2="2033.8" y2="466.4"/>
<text transform="matrix(1 0 0 1 1892.6553 479.2622)" class="st1 st17">RST</text>
<text transform="matrix(1 0 0 1 2022.3887 463.7613)" class="st1 st18">1</text>
<line class="st3" x1="838.3" y1="524.2" x2="2081.9" y2="524.2"/>
<path d="M2076.3,524.2l-6.4-8l24.1,8l-24.1,8L2076.3,524.2z"/>
<line class="st4" x1="1593.1" y1="529.5" x2="1603.8" y2="518.8"/>
<text transform="matrix(1 0 0 1 2110.7671 531.6441)" class="st1 st17">DataIn</text>
<text transform="matrix(1 0 0 1 1586.2949 516.1431)" class="st1 st18">32</text>
<line class="st3" x1="1848" y1="576.5" x2="2077.9" y2="576.5"/>
<path d="M2076.3,576.5l-6.4-8l24.1,8l-24.1,8L2076.3,576.5z"/>
<line class="st4" x1="2023.1" y1="581.9" x2="2033.8" y2="571.2"/>
<text transform="matrix(1 0 0 1 2126.6924 584.0269)" class="st1 st17">Addr</text>
<text transform="matrix(1 0 0 1 2022.3887 568.5259)" class="st1 st18">6</text>
<line class="st3" x1="1963" y1="628.9" x2="2077.9" y2="628.9"/>
<path d="M2076.3,628.9l-6.4-8l24.1,8l-24.1,8L2076.3,628.9z"/>
<line class="st4" x1="2023.1" y1="634.3" x2="2033.8" y2="623.6"/>
<text transform="matrix(1 0 0 1 1910.6172 636.4088)" class="st1 st17">WE</text>
<text transform="matrix(1 0 0 1 2022.3887 620.9078)" class="st1 st18">1</text>
<line class="st3" x1="2533.2" y1="576.5" x2="2648.1" y2="576.5"/>
<line class="st4" x1="2593.3" y1="581.9" x2="2604" y2="571.2"/>
<text transform="matrix(1 0 0 1 2390.6104 584.0269)" class="st1 st17">DataOut</text>
<text transform="matrix(1 0 0 1 2586.4805 568.5259)" class="st1 st18">32</text>
<line class="st3" x1="1848" y1="62.1" x2="1848" y2="579"/>
<circle cx="1848" cy="62.1" r="13.3"/>
<line class="st3" x1="3137" y1="104.3" x2="3263.1" y2="104.3"/>
<line class="st4" x1="3195.1" y1="109.6" x2="3205.9" y2="98.9"/>
<text transform="matrix(1 0 0 1 3188.2402 96.1929)" class="st1 st6">32</text>
<rect x="2933.6" y="35.4" class="st0" width="207.3" height="169.9"/>
<text transform="matrix(1 0 0 1 3006.7275 193.1988)" class="st1 st10">MUX</text>
<path d="M2915.2,61.4l-5.8-7.3l21.8,7.3l-21.8,7.3L2915.2,61.4z"/>
<text transform="matrix(1 0 0 1 2946.7729 68.1807)" class="st1 st11">A</text>
<path d="M2915.2,117l-5.8-7.3l21.8,7.3l-21.8,7.3L2915.2,117z"/>
<text transform="matrix(1 0 0 1 2946.7729 123.7447)" class="st1 st11">B</text>
<line class="st3" x1="2830.6" y1="172.5" x2="2916.6" y2="172.5"/>
<path d="M2915.2,172.5l-5.8-7.3l21.8,7.3l-21.8,7.3L2915.2,172.5z"/>
<line class="st4" x1="2869.7" y1="177.4" x2="2879.4" y2="167.7"/>
<text transform="matrix(1 0 0 1 2774.2104 179.3101)" class="st1 st11">COM</text>
<text transform="matrix(1 0 0 1 2869.0435 165.2593)" class="st1 st12">1</text>
<text transform="matrix(1 0 0 1 3112.7344 105.7447)" class="st1 st11">Y</text>
<line class="st3" x1="2648.1" y1="579" x2="2648.1" y2="119.4"/>
<line class="st3" x1="2645.8" y1="119.4" x2="2915.2" y2="117"/>
<line class="st4" x1="2872.3" y1="124.9" x2="2883" y2="114.2"/>
<text transform="matrix(1 0 0 1 2865.4805 111.5259)" class="st1 st18">32</text>
<line class="st4" x1="2872.3" y1="67.9" x2="2883" y2="57.2"/>
<text transform="matrix(1 0 0 1 2865.4805 54.5259)" class="st1 st18">32</text>
<line class="st3" x1="34.5" y1="851.5" x2="3263.1" y2="851.5"/>
<line class="st3" x1="3263.1" y1="853.9" x2="3263.1" y2="101.8"/>
</svg>
